<?xml version="1.0" standalone="no"?>
<!DOCTYPE svg PUBLIC "-//W3C//DTD SVG 20010904//EN"
 "http://www.w3.org/TR/2001/REC-SVG-20010904/DTD/svg10.dtd">
<svg version="1.0" xmlns="http://www.w3.org/2000/svg"
 width="959.000000pt" height="959.000000pt" viewBox="0 0 959.000000 959.000000"
 preserveAspectRatio="xMidYMid meet">
<metadata>
Created by potrace 1.14, written by Peter Selinger 2001-2017
</metadata>
<g transform="translate(0.000000,959.000000) scale(0.100000,-0.100000)"
fill="#000000" stroke="none">
<path d="M0 5874 c0 -3535 1 -3716 17 -3709 10 4 74 11 143 16 69 5 143 13
165 19 22 5 66 10 98 10 77 0 140 17 155 41 11 17 9 20 -18 25 -35 8 -39 22
-7 29 12 2 139 20 282 40 143 19 334 46 425 60 268 40 612 88 660 91 41 3 115
15 275 45 33 6 95 13 139 17 75 5 78 6 88 34 12 34 36 37 34 4 0 -13 -4 -22
-8 -20 -4 2 -9 -4 -12 -13 -8 -30 -10 -216 -2 -254 6 -27 4 -38 -8 -48 -20
-17 -20 -31 -1 -31 12 0 15 -13 15 -59 0 -33 5 -63 10 -66 13 -8 13 -48 1 -61
-14 -13 11 -146 32 -175 9 -13 28 -41 42 -61 18 -27 30 -36 42 -32 15 5 16 4
3 -5 -12 -8 -6 -19 39 -61 35 -33 60 -49 70 -45 10 3 26 -2 37 -10 20 -15 104
-21 104 -7 0 4 -5 13 -12 20 -9 9 -9 12 1 12 6 0 17 14 23 31 8 22 15 28 27
23 57 -24 123 -8 143 34 9 18 25 29 51 35 37 9 51 27 21 27 -8 0 -12 5 -9 10
4 6 15 8 26 5 15 -5 19 -1 19 14 0 14 6 21 20 21 10 0 28 10 39 22 l20 21 11
-27 c10 -27 30 -27 30 0 0 10 12 14 40 14 48 0 50 10 11 51 -25 26 -28 34 -19
54 7 16 7 29 -1 43 -14 26 -5 51 27 79 19 17 25 33 26 70 2 48 2 48 36 48 42
0 58 10 70 41 13 32 31 22 57 -34 21 -43 23 -74 3 -42 -7 12 -14 9 -40 -15
-16 -16 -30 -33 -30 -38 0 -4 -6 -15 -12 -22 -31 -35 -38 -45 -38 -59 0 -8 6
-16 13 -19 8 -2 12 -24 11 -65 -1 -34 2 -62 5 -62 4 0 17 23 31 51 27 58 41
51 15 -8 -33 -74 -39 -83 -52 -83 -7 0 -13 9 -13 19 0 10 -7 21 -15 25 -11 4
-15 -1 -15 -18 0 -14 4 -26 9 -28 5 -1 12 -14 16 -28 5 -22 2 -25 -22 -27 -62
-4 -103 -16 -103 -29 0 -19 -74 -94 -92 -94 -21 0 -41 -26 -34 -45 15 -40 118
4 162 68 21 32 27 35 59 30 37 -6 99 14 147 48 15 11 65 34 110 50 59 22 92
41 120 70 21 22 49 44 61 50 93 43 164 112 243 235 27 42 78 106 112 143 67
69 134 162 161 221 24 52 76 113 129 151 104 74 244 187 324 261 139 129 224
219 289 305 38 51 81 100 95 109 13 9 36 36 50 60 14 24 30 44 36 44 5 0 18
20 29 45 11 25 31 53 45 62 14 9 37 39 51 67 38 75 169 236 193 236 5 0 11 8
15 18 3 9 21 28 40 42 19 14 35 30 35 37 0 12 54 43 74 43 6 0 17 9 24 20 7
11 18 20 26 20 18 0 76 -78 76 -102 0 -26 51 -180 65 -198 7 -8 16 -26 20 -40
4 -14 23 -48 41 -76 19 -28 34 -55 34 -59 0 -4 21 -31 46 -59 25 -28 60 -67
78 -87 17 -20 38 -55 46 -78 7 -22 17 -38 21 -35 5 3 9 -1 9 -10 0 -8 17 -32
38 -54 24 -25 45 -63 61 -109 l24 -70 -31 -52 c-18 -28 -30 -51 -29 -51 2 0
21 8 43 19 48 22 114 34 114 19 0 -5 19 1 43 15 53 31 105 37 137 14 32 -23
63 -22 85 3 29 32 69 26 104 -17 21 -25 31 -32 31 -21 0 36 84 28 105 -11 7
-14 22 -35 32 -46 11 -11 33 -54 50 -95 18 -41 39 -89 47 -106 12 -23 15 -53
12 -120 -3 -49 -5 -91 -5 -93 -1 -2 -10 4 -21 14 -17 15 -24 16 -45 7 -21 -10
-27 -9 -32 3 -4 13 -8 13 -20 3 -12 -10 -17 -8 -26 7 -6 11 -28 38 -49 59 -22
22 -47 54 -55 70 -17 33 -31 46 -50 46 -20 0 -15 -51 7 -95 16 -31 21 -67 26
-170 3 -71 7 -143 9 -158 3 -15 1 -25 -4 -22 -5 3 -12 -21 -16 -52 -3 -32 -13
-92 -21 -133 -8 -41 -23 -123 -34 -182 -11 -59 -30 -123 -41 -143 -32 -54 -40
-101 -23 -147 8 -22 14 -51 14 -63 0 -29 64 -103 74 -86 4 6 10 37 13 67 4 34
15 69 29 90 13 18 29 52 37 75 17 50 71 80 124 68 27 -5 102 -5 171 0 17 1 42
62 42 101 0 17 7 45 16 62 13 25 14 38 5 74 -6 23 -11 57 -11 75 l0 32 54 -7
c63 -7 81 6 71 52 -4 21 0 40 15 65 19 32 20 41 10 79 -21 78 -29 113 -35 147
-3 19 -16 58 -30 87 -34 73 -34 145 0 182 14 15 25 33 25 40 0 7 4 11 9 8 5
-3 11 1 15 9 3 8 11 15 19 15 7 0 21 24 32 53 10 28 26 65 36 80 11 19 15 41
12 71 -5 38 -3 44 18 49 12 3 49 -3 80 -13 32 -11 72 -20 89 -20 17 0 44 -7
60 -15 16 -8 35 -12 43 -10 7 3 22 34 32 68 24 81 24 82 46 56 23 -26 24 -25
41 26 10 30 19 41 38 43 13 2 35 12 48 22 17 14 30 16 50 10 36 -11 73 -27 94
-42 22 -16 29 -8 32 39 2 48 8 57 50 77 22 10 36 25 38 39 5 35 42 33 96 -6
57 -41 113 -61 143 -52 19 6 20 9 6 16 -19 11 -77 95 -77 113 0 7 -11 18 -25
24 -30 14 -33 32 -5 32 11 0 20 -4 20 -9 0 -5 10 -7 23 -4 18 4 19 3 7 -6 -11
-8 -8 -10 17 -5 28 6 33 3 39 -20 7 -31 29 -33 74 -8 31 17 32 17 47 -5 17
-25 63 -32 63 -9 0 7 -11 21 -25 30 -13 9 -22 22 -19 29 3 8 -2 20 -11 27 -22
18 -18 46 9 68 17 13 23 26 20 39 -8 31 13 37 57 18 31 -15 41 -15 54 -5 17
14 21 50 5 50 -5 0 -10 14 -10 32 0 17 -5 46 -11 63 -10 26 -8 37 10 72 13 27
28 43 43 45 19 2 24 10 26 40 3 30 -2 43 -22 62 -14 13 -26 32 -26 43 0 10 -4
23 -10 29 -5 5 -11 48 -14 96 -2 47 -8 92 -12 100 -5 7 -7 23 -5 36 1 14 -3
22 -12 22 -19 0 -30 25 -32 73 l-1 37 42 0 c39 0 42 2 37 23 -8 33 -23 47 -47
47 -12 0 -35 14 -51 30 -16 17 -34 30 -41 30 -6 0 -17 7 -24 15 -19 23 2 42
32 28 17 -7 32 -5 65 11 24 12 43 24 43 28 0 3 -22 9 -50 13 -46 6 -50 9 -50
33 0 15 -7 40 -15 56 -23 45 -13 59 38 53 84 -11 113 -20 148 -48 20 -16 41
-29 46 -29 6 0 20 -9 33 -20 13 -11 32 -20 44 -20 12 0 31 -3 44 -6 14 -4 22
-2 22 6 0 24 -82 107 -128 130 -26 13 -69 38 -97 57 -27 18 -54 33 -60 33 -6
0 -30 18 -54 40 -23 22 -46 40 -51 40 -5 0 -18 17 -31 38 -12 20 -30 46 -40
57 -25 29 -33 95 -15 120 9 11 16 34 16 52 0 58 49 186 76 201 25 14 36 85 35
217 -1 231 -35 359 -126 486 -19 27 -35 52 -35 55 0 4 -20 33 -45 66 -25 33
-45 64 -45 70 0 17 -64 97 -165 208 -33 36 -78 88 -100 115 -22 28 -63 77 -91
110 -73 86 -79 100 -52 119 12 9 27 16 33 16 5 0 20 11 32 24 25 26 95 48 161
51 24 2 49 8 55 14 17 17 124 14 131 -4 7 -20 20 -19 81 4 27 11 69 24 93 31
24 6 52 20 63 31 22 22 49 25 49 6 0 -8 17 -22 39 -31 30 -14 46 -16 74 -8 27
8 39 7 46 -2 6 -7 7 -16 3 -21 -4 -4 12 -4 35 0 32 5 46 3 60 -10 48 -43 108
-74 135 -68 35 7 39 -17 6 -32 -30 -14 -38 -40 -9 -32 16 4 28 -3 47 -29 19
-25 34 -34 56 -34 34 0 47 -23 29 -52 -10 -16 -9 -23 3 -37 9 -10 16 -25 16
-34 0 -11 8 -17 23 -17 28 0 42 -10 43 -32 2 -16 -8 -18 -91 -16 -99 1 -115
-3 -115 -31 0 -20 -26 -31 -71 -31 -14 0 -34 -9 -43 -19 -10 -11 -28 -21 -40
-23 -15 -2 -21 -10 -21 -29 -1 -26 0 -26 67 -25 68 2 77 -1 58 -20 -8 -8 -6
-15 5 -24 8 -7 15 -18 15 -25 0 -9 20 -15 63 -18 56 -4 180 -27 229 -43 22 -7
68 -50 68 -64 0 -14 -34 -12 -48 2 -12 12 -90 33 -167 44 -33 5 -44 2 -59 -15
-21 -23 -22 -22 49 -39 22 -5 74 -19 115 -30 41 -11 89 -22 105 -25 29 -4 29
-4 -5 -6 -21 0 -47 -11 -65 -26 -16 -14 -45 -32 -62 -40 -39 -17 -44 -52 -12
-81 19 -17 37 -19 153 -19 109 0 136 -3 159 -18 30 -20 34 -32 12 -41 -25 -9
-17 -22 23 -35 20 -7 43 -15 50 -17 9 -5 12 268 12 1344 l0 1350 -29 31 c-16
17 -36 31 -44 31 -15 0 -62 94 -70 140 -3 15 -5 7 -6 -20 l-1 -45 -26 55 c-14
30 -32 59 -40 63 -8 5 -14 24 -14 47 0 40 0 40 -40 40 -33 0 -40 -3 -40 -20 0
-17 -8 -20 -92 -22 l-92 -3 -18 -62 -19 -63 -49 0 -50 0 0 -35 c0 -32 2 -35
30 -35 23 0 30 -4 30 -20 0 -11 5 -20 10 -20 6 0 10 9 10 20 0 11 -4 20 -10
20 -5 0 -10 9 -10 20 0 14 7 20 24 20 21 0 24 -5 28 -47 3 -27 0 -58 -7 -71
-10 -20 -20 -23 -84 -27 -40 -2 -79 -1 -86 2 -10 3 -12 21 -8 71 3 37 2 63 -3
59 -5 -4 -9 -22 -11 -40 -2 -27 -5 -52 -12 -90 0 -4 -4 -6 -8 -6 -20 3 -35 -3
-53 -21 -17 -17 -20 -33 -20 -122 0 -57 -4 -110 -10 -118 -10 -15 -10 -15 -23
30 -9 31 -26 -66 -21 -115 5 -37 1 -65 -14 -108 -12 -32 -24 -89 -28 -128 -4
-38 -11 -69 -15 -69 -5 0 -9 -9 -9 -19 0 -32 -20 -35 -21 -4 -2 82 3 178 10
183 5 3 11 77 15 165 4 88 13 232 21 320 8 88 19 228 25 310 5 83 14 184 20
225 5 41 14 127 20 190 6 63 13 141 16 173 l6 57 -75 0 -76 0 -6 -57 c-3 -32
-19 -155 -36 -273 -16 -119 -29 -240 -29 -270 0 -31 -4 -70 -10 -89 -5 -19
-19 -98 -30 -175 -12 -78 -28 -168 -35 -201 -8 -33 -17 -97 -19 -143 -4 -93
-20 -128 -31 -69 -4 20 0 99 9 174 9 76 18 217 20 313 l5 175 -15 -105 c-8
-58 -21 -128 -29 -156 -8 -28 -16 -66 -16 -85 -1 -19 -3 -26 -6 -16 -2 9 -8
17 -12 17 -4 0 -6 14 -3 30 2 17 0 36 -6 43 -19 23 7 537 30 587 6 14 13 87
16 163 l4 137 -190 0 c-215 0 -196 8 -207 -90 -3 -30 -9 -59 -14 -65 -4 -5 -8
-26 -10 -45 -2 -19 -7 -38 -12 -41 -6 -3 -6 -22 -1 -44 14 -68 -14 -273 -44
-318 -6 -10 -9 -36 -6 -62 3 -32 0 -48 -12 -60 -9 -9 -16 -14 -16 -10 0 3 -8
1 -18 -4 -23 -12 -41 14 -43 61 -1 27 -2 28 -6 8 -8 -47 -14 -57 -23 -35 -8
18 -9 17 -8 -5 2 -34 -30 -140 -42 -140 -14 0 -12 -68 2 -72 6 -2 9 -12 5 -21
-5 -14 -15 -17 -44 -13 -21 3 -41 5 -45 5 -5 1 -8 15 -8 31 0 30 -33 79 -43
63 -16 -29 -38 -118 -36 -148 3 -26 -3 -41 -24 -63 -27 -28 -45 -32 -79 -17
-10 4 -26 4 -35 -1 -10 -4 -22 -8 -28 -8 -5 -1 -11 -10 -12 -21 -1 -11 -10
-42 -19 -68 -14 -41 -20 -48 -38 -43 -23 6 -86 -13 -86 -26 0 -4 -6 -8 -14 -8
-8 0 -18 -5 -22 -12 -5 -7 -3 -8 6 -3 9 5 11 4 6 -4 -6 -9 -11 -9 -24 1 -9 8
-13 8 -9 1 5 -8 -17 -10 -83 -7 l-89 4 -7 -37 c-8 -41 -69 -115 -82 -98 -4 6
-22 11 -39 12 -18 1 -43 12 -55 23 -13 11 -24 16 -26 10 -9 -27 -21 -5 -18 33
2 23 2 33 -1 22 -9 -46 -17 -49 -22 -10 -4 26 -11 39 -20 37 -7 -2 -22 5 -32
14 -11 10 -22 14 -26 11 -4 -4 2 -14 13 -22 16 -12 17 -14 2 -15 -23 0 -49 11
-44 19 3 4 -6 7 -19 7 -15 0 -21 -5 -18 -13 3 -8 -2 -13 -12 -13 -9 0 -30 -14
-46 -31 -26 -28 -30 -29 -45 -15 -8 9 -21 16 -27 16 -7 0 -6 -4 3 -10 12 -8
12 -10 -2 -15 -10 -4 -22 -4 -28 0 -5 3 -13 -1 -16 -10 -4 -10 -13 -13 -25
-10 -10 4 -26 2 -35 -3 -17 -9 -31 -7 -131 21 -29 9 -53 11 -53 6 0 -5 -10 -9
-22 -9 -26 -1 -58 -22 -58 -39 0 -6 -3 -11 -7 -11 -18 -1 -73 -60 -75 -81 -5
-42 -58 -68 -58 -29 0 11 -4 20 -10 20 -5 0 -10 -6 -10 -13 0 -7 -10 -18 -21
-26 -16 -9 -19 -15 -9 -21 9 -5 7 -12 -9 -27 -17 -16 -31 -19 -71 -15 -48 4
-50 3 -50 -20 0 -14 -9 -33 -20 -43 -19 -17 -21 -17 -39 -1 -10 9 -29 19 -42
23 -42 11 -139 15 -139 6 0 -4 -19 -9 -42 -9 -49 -2 -131 -12 -168 -21 -22 -6
-21 -7 15 -13 l40 -7 -42 -2 c-32 -1 -43 -5 -43 -17 0 -12 10 -15 43 -14 84 4
85 3 47 -30 -19 -16 -31 -29 -27 -30 19 -1 -16 -40 -36 -40 -30 0 -138 -43
-174 -68 -16 -11 -68 -34 -117 -51 -49 -17 -96 -37 -105 -45 -9 -8 -28 -17
-43 -21 -17 -4 -28 -15 -30 -28 -2 -13 -28 -39 -68 -66 -36 -25 -72 -54 -80
-66 -25 -34 -91 -92 -192 -167 -54 -40 -98 -77 -98 -82 0 -5 -10 -19 -22 -31
-13 -12 -59 -62 -103 -110 -70 -77 -85 -101 -123 -194 -60 -144 -63 -155 -72
-241 -5 -41 -22 -127 -39 -190 l-31 -115 40 -58 c22 -32 40 -65 40 -73 0 -8 8
-31 19 -52 11 -23 17 -51 14 -74 -3 -30 1 -39 18 -48 15 -9 19 -18 15 -36 -4
-13 2 -49 14 -81 11 -32 20 -71 20 -88 1 -61 38 -187 68 -228 49 -69 93 -162
91 -193 -4 -60 40 -107 182 -192 53 -32 73 -71 60 -118 -10 -35 -4 -54 29 -99
26 -35 127 -72 185 -67 11 1 48 -5 82 -14 45 -12 67 -24 79 -42 20 -30 65 -71
79 -72 6 0 22 -15 37 -34 30 -37 135 -96 171 -96 12 0 33 -7 46 -16 l22 -16
-23 -25 c-12 -13 -63 -47 -113 -75 -49 -28 -109 -68 -132 -89 -24 -22 -47 -39
-53 -39 -6 0 -28 -11 -49 -24 l-38 -24 4 -79 c2 -43 4 -85 4 -93 1 -8 -4 -44
-10 -80 -6 -36 -16 -99 -22 -140 -7 -41 -18 -87 -25 -102 -8 -15 -14 -42 -14
-60 0 -59 -28 -139 -65 -186 -38 -49 -43 -84 -12 -90 12 -3 20 4 24 18 5 18
12 21 35 18 24 -4 35 3 68 38 22 24 40 48 40 54 0 6 10 15 23 20 12 6 29 15
38 22 9 6 25 8 35 4 16 -6 14 -10 -16 -34 -68 -53 -80 -67 -82 -96 -3 -33 -70
-104 -167 -176 -33 -25 -82 -64 -108 -88 -27 -24 -67 -52 -91 -64 -23 -11 -42
-24 -42 -29 0 -5 -11 -9 -25 -9 -44 0 -32 34 18 48 29 9 52 25 72 50 16 20 40
46 54 57 65 52 86 75 75 82 -6 5 -16 18 -23 31 -14 26 -36 29 -49 6 -6 -11
-12 -13 -16 -6 -7 11 -46 2 -94 -21 -25 -12 -62 -69 -62 -97 0 -19 -19 -30
-50 -30 -28 0 -70 -21 -70 -35 0 -7 -9 -20 -20 -30 -19 -18 -20 -17 -20 2 0
11 -7 26 -15 33 -25 20 -17 64 18 111 35 45 57 85 75 130 6 15 30 37 54 50 50
28 56 47 33 99 -15 33 -15 42 -4 66 8 15 32 40 53 55 l40 27 2 84 c1 47 7 95
14 108 10 19 18 22 53 17 53 -7 77 6 77 42 0 27 -2 28 -47 27 -31 -1 -61 -9
-83 -24 -19 -12 -40 -22 -47 -22 -6 0 -18 -8 -25 -18 -7 -9 -24 -25 -38 -33
-14 -9 -42 -33 -62 -53 -20 -20 -44 -36 -52 -36 -8 0 -39 -9 -69 -21 -42 -16
-59 -29 -73 -55 -19 -36 -22 -37 -67 -34 -16 1 -29 -4 -33 -13 -3 -9 -20 -14
-47 -14 -23 0 -87 -5 -142 -11 -74 -8 -118 -8 -168 1 -60 10 -70 15 -88 43
-13 22 -29 34 -52 37 -17 3 -44 9 -58 12 -20 5 -33 1 -54 -19 -37 -34 -63 -41
-84 -22 -10 9 -22 16 -27 16 -5 0 -25 14 -44 31 -19 17 -53 39 -75 49 -22 9
-69 31 -105 48 -36 16 -84 33 -107 37 -28 4 -56 18 -80 41 -23 20 -49 34 -65
34 -30 0 -98 53 -98 76 0 8 10 14 25 14 14 0 25 4 25 9 0 5 8 12 18 16 9 3 27
14 40 25 19 16 21 23 12 40 -6 11 -17 20 -24 20 -25 0 -49 38 -42 67 3 15 10
72 15 125 8 92 11 100 45 139 20 24 36 48 36 54 0 7 16 26 35 44 19 17 35 41
35 52 0 37 22 109 34 109 7 0 11 27 10 81 -1 70 -4 83 -26 107 -26 28 -47 69
-69 137 -7 22 -16 45 -20 50 -3 6 -9 27 -13 47 -5 28 -15 42 -36 53 -15 8 -37
26 -48 40 -34 43 -114 100 -157 112 -22 7 -62 19 -90 28 -84 27 -118 35 -161
35 -22 0 -55 7 -73 16 -50 25 -99 27 -186 9 -44 -9 -111 -20 -150 -25 -38 -4
-85 -11 -104 -15 -32 -8 -33 -7 -22 14 7 12 23 27 37 33 13 6 24 14 24 18 0 9
69 46 115 60 76 24 270 112 288 131 10 10 26 19 35 19 10 0 27 7 38 15 10 8
25 15 32 15 7 0 60 20 116 45 68 29 118 45 145 45 39 0 155 39 196 67 11 7 27
13 36 13 9 0 30 7 45 15 16 8 37 15 47 15 9 0 53 18 96 39 66 33 79 45 84 69
4 21 16 34 44 47 46 21 83 54 83 73 0 7 16 28 36 45 19 18 47 52 60 77 19 34
39 53 82 76 33 18 63 42 72 59 8 16 29 43 46 59 18 17 40 47 49 66 10 19 21
37 24 40 18 15 51 72 56 96 16 77 29 120 40 134 20 25 34 72 40 130 8 87 21
150 33 162 7 7 12 25 12 40 0 16 20 61 48 106 27 42 52 90 56 107 4 16 11 32
15 35 8 5 43 31 99 76 35 27 175 81 232 89 70 10 80 14 74 33 -4 13 -3 14 4 4
11 -16 71 -19 80 -5 16 24 49 33 68 18 25 -19 43 -19 51 2 15 38 43 54 90 52
50 -3 72 16 55 48 -7 11 -6 23 1 35 9 14 8 21 -8 33 -19 14 -19 16 -2 29 21
16 22 27 3 20 -11 -4 -13 0 -9 15 4 16 -1 21 -31 26 -20 4 -36 11 -36 17 0 5
-4 6 -10 3 -5 -3 -10 -1 -10 4 0 6 7 11 15 11 8 0 15 9 15 20 0 17 -5 19 -52
14 -86 -9 -96 -12 -100 -36 -3 -26 -26 -33 -48 -17 -11 8 -12 12 -2 16 26 10
10 31 -47 57 -36 17 -62 36 -69 52 -7 13 -20 28 -29 31 -10 4 -24 15 -32 25
-7 11 -24 23 -38 29 -13 5 -22 13 -19 18 4 5 0 16 -7 23 -8 8 -20 31 -28 52
l-14 38 -52 -6 c-38 -4 -56 -2 -67 9 -17 18 -36 20 -36 4 0 -8 -6 -7 -17 2
-11 10 -14 10 -9 2 12 -20 -9 -15 -29 7 -14 15 -22 17 -36 9 -27 -14 -37 -5
-64 57 -13 30 -27 54 -30 54 -11 0 -63 -59 -57 -65 3 -3 -2 -5 -11 -5 -9 0
-17 4 -17 9 0 12 -59 35 -82 33 -10 -1 -18 4 -18 11 0 6 -12 20 -26 31 -20 14
-28 16 -34 6 -6 -9 -9 -9 -15 -1 -5 9 -10 9 -20 1 -16 -13 -95 -2 -92 13 1 5
-10 17 -25 26 -25 14 -30 14 -57 -2 -19 -11 -32 -14 -36 -7 -3 5 -3 10 2 10 4
0 1 5 -7 10 -8 5 -46 10 -85 10 -83 0 -145 15 -145 35 0 8 -7 15 -15 15 -19 0
-58 38 -50 49 3 5 -19 34 -48 65 -56 59 -54 59 -211 65 -11 1 -17 4 -13 7 9 9
-31 44 -50 43 -15 0 -15 -2 2 -9 16 -7 14 -9 -14 -9 -19 -1 -31 2 -28 6 10 9
-31 35 -43 28 -6 -3 -10 -1 -10 5 0 7 -7 10 -15 6 -19 -7 -75 13 -75 27 0 6
-3 8 -6 5 -3 -3 -20 8 -37 26 -18 18 -40 35 -50 39 -9 3 -15 12 -12 19 2 7 -5
24 -16 37 l-20 24 -17 -23 c-9 -13 -20 -28 -24 -34 -3 -5 -17 3 -31 20 -61 72
-74 82 -110 88 -31 6 -39 12 -43 34 -10 51 -29 65 -77 60 -39 -5 -48 -2 -72
23 -16 18 -21 29 -13 29 10 0 10 2 -2 9 -8 6 -18 7 -22 5 -13 -9 -78 19 -78
33 0 7 -5 13 -11 13 -6 0 -8 9 -4 20 4 12 2 20 -5 20 -17 0 -110 99 -110 116
0 29 -39 67 -72 71 -40 4 -78 39 -78 70 l0 23 -900 0 -900 0 0 -3716z m2163
3322 c4 -10 0 -12 -14 -9 -22 6 -26 23 -5 23 8 0 16 -6 19 -14z m6184 -858
c-2 -13 -4 -5 -4 17 -1 22 1 32 4 23 2 -10 2 -28 0 -40z m-2307 -308 c0 -5 -5
-10 -11 -10 -5 0 -7 5 -4 10 3 6 8 10 11 10 2 0 4 -4 4 -10z m-1373 -86 c-3
-3 -12 -4 -19 -1 -8 3 -5 6 6 6 11 1 17 -2 13 -5z m1016 -54 c-4 -16 -14 -20
-44 -20 -32 0 -39 3 -39 20 0 17 7 20 44 20 39 0 44 -2 39 -20z m167 7 c0 -7
-37 -47 -44 -47 -13 0 0 26 19 37 22 14 25 15 25 10z m-333 -33 c-3 -3 -12 -4
-19 -1 -8 3 -5 6 6 6 11 1 17 -2 13 -5z m36 -61 c-7 -2 -19 -2 -25 0 -7 3 -2
5 12 5 14 0 19 -2 13 -5z m3627 -1007 c0 -2 -7 -7 -16 -10 -8 -3 -12 -2 -9 4
6 10 25 14 25 6z m-106 -252 c29 -4 46 -12 46 -20 0 -8 -1 -14 -2 -15 -32 -9
-107 -8 -130 2 -28 12 -29 13 -12 26 20 15 32 16 98 7z m466 -204 c0 -5 -6
-10 -14 -10 -8 0 -18 5 -21 10 -3 6 3 10 14 10 12 0 21 -4 21 -10z m-4415
-176 c-9 -9 -19 -13 -23 -10 -3 4 0 11 8 16 24 15 33 11 15 -6z m235 -204 c0
-15 -35 -29 -58 -23 -24 6 -29 19 -9 26 22 9 67 7 67 -3z m-3549 -1585 c12
-25 26 -45 31 -45 4 0 15 -14 24 -32 9 -17 25 -39 35 -47 25 -21 90 -139 94
-171 6 -43 17 -62 67 -112 27 -27 46 -53 43 -58 -9 -15 -51 -12 -65 5 -7 8
-20 15 -30 15 -10 0 -20 9 -23 20 -3 11 -13 20 -22 20 -20 0 -65 44 -65 64 0
7 -11 23 -24 35 -14 13 -33 48 -42 78 -10 30 -30 74 -46 97 -23 35 -28 51 -28
109 0 82 17 89 51 22z m3643 -159 c-7 -60 -56 -176 -74 -176 -18 0 -25 -2 -42
-11 -15 -8 -21 -3 -35 26 -9 19 -21 35 -26 35 -13 0 0 62 15 71 7 5 18 3 24
-2 15 -12 28 5 20 27 -9 23 15 55 31 42 9 -8 15 -5 20 9 5 10 17 31 28 45 18
25 21 25 33 10 9 -12 10 -34 6 -76z m-216 -414 c17 -11 -15 -87 -50 -120 -46
-42 -70 -3 -32 52 7 10 10 25 7 33 -5 12 -1 14 14 9 15 -5 22 -1 26 14 6 21
14 24 35 12z m-2005 -61 c21 -7 37 -18 37 -27 0 -15 -39 -107 -63 -149 -6 -11
-35 -67 -65 -125 -55 -108 -78 -142 -147 -225 -62 -74 -117 -125 -135 -125 -9
0 -21 -5 -28 -12 -9 -9 -12 -1 -12 38 0 28 4 54 9 60 6 5 11 47 12 92 2 102
21 196 43 221 9 10 21 44 26 76 11 66 28 124 43 143 6 8 6 16 -2 25 -6 8 -8
16 -5 20 11 10 248 1 287 -12z m1016 -21 c-11 -31 -24 -39 -32 -17 -5 12 20
47 34 47 4 0 3 -13 -2 -30z m4260 14 c17 -4 31 -11 31 -16 0 -11 -60 -1 -74
13 -12 11 -1 11 43 3z m-24 -85 c-5 -7 -11 -6 -21 2 -11 9 -12 15 -2 26 10 12
13 12 20 -1 5 -9 6 -21 3 -27z m-4123 -414 c23 -27 22 -38 -7 -73 -24 -29 -45
-37 -129 -49 l-39 -5 5 51 c7 74 35 102 102 99 37 -2 56 -8 68 -23z m-313
-214 c11 -7 10 -16 -5 -50 -21 -48 -42 -50 -62 -8 -12 25 -12 31 4 48 18 20
41 24 63 10z m-1573 -282 c-7 -59 -23 -116 -30 -108 -4 5 12 126 20 152 11 36
16 15 10 -44z m1184 -202 c0 -8 7 -29 17 -47 24 -48 29 -166 10 -212 -21 -50
-71 -81 -117 -72 -40 7 -49 12 -34 22 6 4 14 33 18 64 4 32 11 60 16 63 4 2
11 30 15 61 4 35 13 61 25 72 11 8 17 19 14 24 -9 14 4 38 21 38 8 0 15 -6 15
-13z m-197 -53 c5 -29 -12 -94 -25 -94 -10 0 -11 45 -2 89 8 38 20 40 27 5z
m-343 -49 c0 -27 -31 -85 -45 -85 -13 0 -15 -15 -14 -84 3 -93 -7 -116 -47
-116 -22 0 -24 4 -24 50 0 50 39 150 59 150 5 0 11 12 14 28 11 55 26 82 42
76 8 -3 15 -12 15 -19z m-2727 -172 c-7 -2 -19 -2 -25 0 -7 3 -2 5 12 5 14 0
19 -2 13 -5z m2597 -203 c0 -13 -37 -50 -44 -43 -10 10 -7 48 6 61 12 12 38
-1 38 -18z m-52 -228 c-16 -2 -28 -8 -28 -13 0 -5 -7 -9 -15 -9 -8 0 -15 4
-15 8 0 14 43 29 65 23 17 -5 16 -6 -7 -9z"/>
<path d="M8467 9030 c-3 -11 -1 -20 4 -20 5 0 9 9 9 20 0 11 -2 20 -4 20 -2 0
-6 -9 -9 -20z"/>
<path d="M7922 8910 c0 -14 2 -19 5 -12 2 6 2 18 0 25 -3 6 -5 1 -5 -13z"/>
<path d="M7700 8660 c0 -5 5 -10 11 -10 5 0 7 5 4 10 -3 6 -8 10 -11 10 -2 0
-4 -4 -4 -10z"/>
<path d="M6960 8299 c0 -5 5 -7 10 -4 6 3 10 8 10 11 0 2 -4 4 -10 4 -5 0 -10
-5 -10 -11z"/>
<path d="M5790 8004 c-13 -34 1 -54 25 -34 19 16 19 34 0 50 -12 10 -16 7 -25
-16z"/>
<path d="M5533 7983 c9 -2 23 -2 30 0 6 3 -1 5 -18 5 -16 0 -22 -2 -12 -5z"/>
<path d="M5020 7950 c0 -5 5 -10 10 -10 6 0 10 5 10 10 0 6 -4 10 -10 10 -5 0
-10 -4 -10 -10z"/>
<path d="M4972 7890 c-15 -25 -15 -33 1 -27 6 2 12 8 12 13 0 5 4 15 8 22 5 6
4 12 0 12 -5 0 -14 -9 -21 -20z"/>
<path d="M5043 7890 c-28 -11 -29 -20 -2 -54 20 -25 69 -37 69 -16 0 6 8 10
18 10 15 1 15 2 1 10 -11 6 -15 18 -11 35 4 22 1 25 -24 24 -16 0 -39 -4 -51
-9z"/>
<path d="M9313 5926 l-123 -9 6 -26 c7 -30 28 -49 64 -58 14 -3 41 -17 60 -30
19 -12 42 -23 52 -23 10 0 16 -7 16 -17 0 -10 2 -25 6 -34 6 -13 -7 -24 -59
-48 -56 -27 -66 -36 -72 -63 -5 -27 -8 -29 -18 -15 -11 15 -64 20 -155 16 -8
0 -55 5 -103 12 -80 11 -94 10 -143 -7 -57 -19 -61 -23 -42 -42 18 -18 -4 -34
-54 -41 -40 -6 -43 -8 -40 -35 l3 -29 -51 6 c-45 5 -51 4 -48 -11 2 -10 21
-23 46 -32 25 -9 42 -21 42 -30 0 -22 20 -40 46 -40 12 0 27 -7 34 -15 7 -9
27 -14 51 -13 47 2 61 -9 36 -27 -15 -11 -17 -17 -7 -35 6 -12 20 -24 31 -28
10 -4 50 -45 88 -91 57 -68 68 -87 61 -105 -6 -15 -2 -27 13 -43 18 -20 18
-23 3 -29 -22 -9 -20 -27 9 -70 28 -41 27 -51 -3 -35 -12 6 -25 11 -31 11 -20
0 -12 -48 10 -64 27 -19 59 -71 59 -96 0 -11 6 -20 13 -20 8 0 8 -3 1 -8 -14
-9 -27 -45 -13 -37 15 10 39 -15 39 -41 0 -17 8 -28 25 -34 16 -6 25 -17 25
-31 0 -19 -4 -21 -31 -15 -17 3 -44 19 -60 35 -16 17 -36 28 -43 25 -8 -3 -36
16 -65 45 -55 54 -76 62 -97 34 -23 -31 -15 -57 31 -103 25 -25 57 -62 71 -82
13 -21 30 -38 37 -38 18 0 158 -138 195 -192 17 -25 36 -48 40 -50 14 -5 65
-88 83 -135 17 -43 13 -47 -26 -24 -5 3 -16 6 -23 7 -15 3 -31 15 -104 81 -26
24 -52 43 -57 43 -6 0 -22 10 -36 23 -45 39 -87 58 -102 45 -17 -14 -17 -33 2
-48 8 -7 15 -22 15 -33 0 -18 43 -75 105 -137 53 -54 16 -88 -41 -38 l-35 31
-27 -26 c-14 -15 -27 -37 -27 -50 -3 -63 -48 -65 -75 -3 -37 88 -61 64 -35
-36 19 -71 44 -123 90 -188 55 -76 107 -204 98 -239 -3 -11 2 -30 11 -43 9
-12 16 -32 16 -44 0 -12 11 -32 25 -46 24 -24 55 -95 55 -124 0 -8 -7 -14 -15
-14 -19 0 -19 -14 0 -76 8 -27 15 -61 15 -77 0 -15 9 -46 19 -70 20 -46 49
-150 58 -209 5 -34 4 -36 -19 -31 -12 3 -31 12 -41 18 -25 17 -57 7 -67 -21
-9 -23 4 -76 29 -120 20 -36 41 -96 41 -119 0 -12 7 -28 15 -35 19 -15 19 -44
2 -59 -10 -8 -23 -1 -55 29 -42 39 -78 57 -89 46 -4 -3 -2 -26 4 -50 11 -48 1
-86 -21 -86 -8 0 -28 17 -43 38 -36 48 -46 54 -56 37 -11 -21 -25 -19 -32 5
-3 11 -11 20 -16 20 -15 0 -10 -34 8 -60 12 -17 18 -48 19 -99 2 -64 0 -77
-16 -88 -16 -12 -19 -27 -20 -111 0 -87 -16 -206 -19 -144 -1 13 -5 20 -11 17
-6 -4 -8 -15 -5 -26 5 -14 2 -19 -14 -19 -11 0 -23 -5 -26 -11 -11 -17 15 -66
41 -77 13 -7 24 -18 24 -26 0 -7 7 -27 15 -42 16 -31 18 -58 7 -86 -7 -16 -11
-16 -44 8 -31 22 -40 25 -53 14 -19 -16 -19 -38 1 -117 14 -58 14 -66 0 -88
-9 -13 -16 -37 -17 -52 0 -15 -4 -36 -7 -46 -7 -16 -11 -14 -37 13 -39 40 -49
38 -42 -10 7 -51 24 -75 43 -59 16 13 30 -11 20 -37 -3 -9 1 -25 9 -37 8 -12
15 -42 15 -67 0 -28 8 -56 20 -75 11 -16 20 -38 20 -47 0 -29 -18 -30 -34 -1
-15 28 -15 28 -16 -29 0 -33 5 -62 13 -70 31 -32 75 -176 61 -200 -2 -4 0 -9
6 -13 16 -10 12 -45 -5 -45 -8 0 -15 -4 -15 -10 0 -5 4 -10 9 -10 16 0 -1 -72
-20 -91 -19 -19 -33 -11 -24 13 3 8 0 27 -7 44 -25 57 -119 212 -142 233 -22
20 -25 21 -40 6 -22 -23 -20 -57 6 -91 21 -26 23 -40 27 -204 2 -116 7 -178
15 -183 7 -5 3 -14 -14 -27 -33 -26 -37 -25 -55 10 -17 33 -32 37 -59 17 -14
-10 -17 -23 -14 -45 5 -38 -9 -43 -18 -7 -8 31 -27 32 -47 2 -8 -12 -26 -35
-41 -52 -33 -38 -35 -87 -3 -108 12 -8 19 -18 15 -22 -4 -4 -14 -3 -22 4 -11
9 -15 8 -21 -6 -6 -17 -7 -17 -21 2 -10 13 -12 33 -8 67 5 36 3 51 -10 63 -9
9 -16 24 -16 33 0 17 -38 80 -79 134 -12 14 -26 50 -33 78 -8 34 -23 65 -43
86 -17 18 -37 44 -43 59 -15 32 -48 45 -84 33 -33 -12 -33 -12 -13 -68 8 -23
15 -58 15 -77 0 -20 6 -36 15 -39 17 -7 31 -67 20 -85 -5 -8 -22 4 -50 35 -24
25 -49 46 -57 46 -8 0 -32 17 -54 38 l-39 37 -3 -85 c-2 -58 -8 -90 -18 -101
-8 -9 -16 -32 -17 -52 -3 -36 -21 -67 -42 -67 -12 0 -29 -46 -41 -105 -32
-170 -36 -205 -24 -220 11 -13 124 -15 926 -15 l914 0 0 2963 0 2963 -72 2
c-39 2 -74 4 -77 5 -3 1 -61 -2 -128 -7z m-113 -356 c0 -5 -9 -10 -21 -10 -11
0 -17 5 -14 10 3 6 13 10 21 10 8 0 14 -4 14 -10z m-473 -4942 c-3 -7 -5 -2
-5 12 0 14 2 19 5 13 2 -7 2 -19 0 -25z"/>
<path d="M3518 5339 c-26 -15 -22 -38 8 -49 60 -23 85 -1 44 40 -23 23 -28 24
-52 9z"/>
<path d="M8920 5050 c0 -5 9 -14 19 -19 16 -9 18 -8 14 9 -5 20 -33 29 -33 10z"/>
<path d="M8980 5016 c0 -20 19 -31 32 -18 7 7 3 14 -11 21 -17 10 -21 9 -21
-3z"/>
<path d="M3952 4708 c-17 -17 -15 -25 8 -31 11 -3 20 -14 20 -24 0 -11 7 -20
15 -20 8 0 15 7 15 14 0 8 -4 11 -10 8 -14 -9 -13 8 2 23 8 8 8 15 -2 27 -15
18 -32 19 -48 3z"/>
<path d="M8740 4403 c0 -10 16 -31 35 -46 33 -26 35 -27 35 -7 0 11 -6 20 -13
20 -8 0 -19 11 -25 25 -13 29 -32 33 -32 8z"/>
<path d="M4962 4210 c0 -14 2 -19 5 -12 2 6 2 18 0 25 -3 6 -5 1 -5 -13z"/>
<path d="M8730 3895 c0 -8 7 -15 15 -15 8 0 15 7 15 15 0 8 -7 15 -15 15 -8 0
-15 -7 -15 -15z"/>
<path d="M4800 3480 c0 -5 5 -10 10 -10 6 0 10 5 10 10 0 6 -4 10 -10 10 -5 0
-10 -4 -10 -10z"/>
<path d="M5952 3069 c-28 -8 -32 -12 -21 -25 16 -19 96 -54 125 -54 13 0 29
-9 36 -20 7 -11 23 -20 35 -20 13 0 23 -4 23 -10 0 -5 8 -6 17 -3 11 4 13 8 5
11 -7 2 -10 8 -6 13 7 13 -33 77 -60 94 -29 18 -114 26 -154 14z"/>
<path d="M1831 2420 c-18 -11 0 -19 23 -10 16 5 17 8 4 12 -8 4 -21 3 -27 -2z"/>
<path d="M1215 2340 c-15 -7 -8 -9 27 -7 25 1 44 5 41 10 -6 9 -43 8 -68 -3z"/>
<path d="M805 2294 c-11 -2 -46 -6 -79 -9 -92 -10 -54 -28 52 -24 92 4 118 13
92 29 -15 10 -26 10 -65 4z"/>
<path d="M4135 2096 c-32 -29 -36 -39 -31 -62 4 -15 32 -50 61 -77 30 -27 52
-53 49 -58 -3 -5 21 -20 53 -35 69 -31 110 -28 177 11 45 27 46 27 39 68 -4
28 -18 54 -40 77 -18 19 -33 38 -33 43 0 4 -11 7 -25 7 -21 0 -25 -5 -25 -30
0 -48 -38 -40 -94 20 -25 27 -46 54 -46 60 0 22 -49 8 -85 -24z"/>
<path d="M3128 1863 c7 -3 16 -2 19 1 4 3 -2 6 -13 5 -11 0 -14 -3 -6 -6z"/>
<path d="M3063 1643 c-13 -2 -23 -8 -23 -11 0 -11 79 -2 86 9 5 9 -22 10 -63
2z"/>
<path d="M7996 823 c-12 -12 -6 -33 9 -33 8 0 15 6 15 14 0 17 -14 28 -24 19z"/>
<path d="M8483 469 c-16 -16 -4 -49 18 -49 24 0 29 10 18 38 -9 24 -19 28 -36
11z"/>
<path d="M8401 414 c0 -11 3 -14 6 -6 3 7 2 16 -1 19 -3 4 -6 -2 -5 -13z"/>
</g>
</svg>
